<?xml version="1.0" encoding="UTF-8"?>
<svg version="1.1" xmlns="http://www.w3.org/2000/svg" width="148" height="134">
<path d="M0 0 C48.84 0 97.68 0 148 0 C148 44.22 148 88.44 148 134 C99.16 134 50.32 134 0 134 C0 89.78 0 45.56 0 0 Z " fill="#FEFEFD" transform="translate(0,0)"/>
<path d="M0 0 C4.3003125 0.0309375 4.3003125 0.0309375 8.6875 0.0625 C8.6875 10.9525 8.6875 21.8425 8.6875 33.0625 C5.325625 33.31 1.96375 33.5575 -1.5 33.8125 C-9.60745326 34.47633955 -17.57373309 35.45960789 -25.5625 37 C-26.38129639 37.15758789 -27.20009277 37.31517578 -28.04370117 37.47753906 C-34.24300676 38.73134532 -40.17993987 40.3899836 -46.3125 42.0625 C-46.3125 57.2425 -46.3125 72.4225 -46.3125 88.0625 C-57.5325 88.0625 -68.7525 88.0625 -80.3125 88.0625 C-80.3125 61.28536758 -72.33823404 39.14519732 -53.3125 20.0625 C-52.74015625 19.46695313 -52.1678125 18.87140625 -51.578125 18.2578125 C-41.51998484 8.66628709 -27.47032288 4.31703581 -14.3125 1.0625 C-13.11947266 0.753125 -13.11947266 0.753125 -11.90234375 0.4375 C-7.93782103 -0.13654854 -3.9990338 -0.04071455 0 0 Z " fill="#AADD63" transform="translate(137.3125,45.9375)"/>
<path d="M0 0 C11.22 0 22.44 0 34 0 C32.35274152 26.35613565 26.63830294 50.08554476 7 69 C-10.40011018 83.88027715 -32.63125718 89 -55 89 C-55 78.11 -55 67.22 -55 56 C-39.25 54.375 -39.25 54.375 -34.42285156 53.90771484 C-22.33167217 52.56799225 -13.12659737 49.63797921 -1 46 C-0.67 30.82 -0.34 15.64 0 0 Z " fill="#A7DC62" transform="translate(57,1)"/>
<path d="M0 0 C0 14.19 0 28.38 0 43 C-10.89 43 -21.78 43 -33 43 C-31.94791667 34.58333333 -31.94791667 34.58333333 -30 30 C-29.69647447 28.69019164 -29.40586662 27.37735347 -29.125 26.0625 C-26.5248935 15.50449177 -16.97524692 7.34767851 -8.4921875 1.21484375 C-6 0 -6 0 0 0 Z " fill="#018137" transform="translate(90,91)"/>
<path d="M0 0 C10.56 0 21.12 0 32 0 C32 12.47820386 28.61463895 21.90486326 20 31 C15.64364769 35.32641175 11.86793274 38.95137085 6 41 C6 41.66 6 42.32 6 43 C3.03 43.495 3.03 43.495 0 44 C0 29.48 0 14.96 0 0 Z " fill="#008037" transform="translate(58,2)"/>
<path d="M0 0 C-1.53643852 3.68069887 -3.78150945 5.98775204 -6.625 8.75 C-7.85089844 9.94882813 -7.85089844 9.94882813 -9.1015625 11.171875 C-9.72804688 11.77515625 -10.35453125 12.3784375 -11 13 C-11 8.89253434 -9.36039564 7.80245139 -6.625 4.8125 C-5.81289062 3.91144531 -5.00078125 3.01039062 -4.1640625 2.08203125 C-2 0 -2 0 0 0 Z " fill="#289B41" transform="translate(76,98)"/>
<path d="M0 0 C0.33 0 0.66 0 1 0 C0.93976735 1.60520004 0.85091401 3.20934327 0.75 4.8125 C0.70359375 5.70582031 0.6571875 6.59914063 0.609375 7.51953125 C0 10 0 10 -2.046875 11.82421875 C-3.01367188 12.40623047 -3.01367188 12.40623047 -4 13 C-3.52140759 11.39566191 -3.04210442 9.79153584 -2.5625 8.1875 C-2.29566406 7.29417969 -2.02882813 6.40085937 -1.75390625 5.48046875 C-1.19612127 3.64526945 -0.60655425 1.81966274 0 0 Z " fill="#68C756" transform="translate(89,11)"/>
<path d="M0 0 C0.66 0.33 1.32 0.66 2 1 C0.02 5.455 0.02 5.455 -2 10 C-2.33 10 -2.66 10 -3 10 C-3.36923077 4.58461538 -3.36923077 4.58461538 -1.5 1.625 C-1.005 1.08875 -0.51 0.5525 0 0 Z " fill="#8ADA69" transform="translate(61,112)"/>
</svg>
